<svg xmlns="http://www.w3.org/2000/svg" xmlns:xlink="http://www.w3.org/1999/xlink" width="500" zoomAndPan="magnify" viewBox="0 0 375 374.999991" height="500" preserveAspectRatio="xMidYMid meet" version="1.0"><defs><g/><clipPath id="0de6d85b50"><path d="M 8 21 L 368.429688 21 L 368.429688 353 L 8 353 Z M 8 21 " clip-rule="nonzero"/></clipPath></defs><g clip-path="url(#0de6d85b50)"><path fill="#151b28" d="M 70.414062 306.847656 C 44.824219 289.675781 21.851562 266.238281 13.097656 236.703125 C 7.0625 216.34375 8.199219 194.382812 13.097656 173.71875 C 20.425781 142.8125 36.070312 114.027344 57.371094 90.449219 C 78.667969 66.871094 105.535156 48.476562 134.898438 36.296875 C 160.671875 25.605469 188.765625 19.625 216.574219 21.980469 C 226.203125 22.796875 235.71875 24.597656 245.234375 26.277344 C 256.070312 28.1875 266.96875 29.953125 277.519531 33.082031 C 288.070312 36.210938 298.34375 40.773438 306.851562 47.746094 C 317.054688 56.117188 324.289062 67.589844 329.808594 79.570312 C 335.328125 91.550781 339.292969 104.175781 344.105469 116.460938 C 349.238281 129.558594 355.335938 142.273438 360.175781 155.480469 C 365.019531 168.691406 368.613281 182.558594 368.464844 196.625 C 368.300781 212.269531 363.492188 227.59375 356.519531 241.605469 C 349.550781 255.617188 340.453125 268.453125 331.210938 281.082031 C 321.699219 294.070312 311.949219 306.964844 300.539062 318.328125 C 289.132812 329.691406 275.960938 339.539062 260.996094 345.5 C 236.699219 355.175781 209.433594 354.003906 183.617188 349.792969 C 143.472656 343.242188 104.183594 329.503906 70.414062 306.847656 Z M 70.414062 306.847656 " fill-opacity="1" fill-rule="nonzero"/></g><g fill="#c5dbff" fill-opacity="1"><g transform="translate(72.835159, 253.499983)"><g><path d="M 42.75 -41.609375 C 42.75 -36.921875 43.410156 -32.582031 44.734375 -28.59375 C 46.066406 -24.601562 47.875 -21.148438 50.15625 -18.234375 C 52.4375 -15.328125 55.160156 -13.050781 58.328125 -11.40625 C 61.492188 -9.757812 64.976562 -8.9375 68.78125 -8.9375 C 76.382812 -8.9375 82.144531 -12.414062 86.0625 -19.375 C 89.988281 -26.34375 91.953125 -36.601562 91.953125 -50.15625 C 91.953125 -63.332031 90.019531 -73.367188 86.15625 -80.265625 C 82.300781 -87.171875 76.507812 -90.625 68.78125 -90.625 C 64.21875 -90.625 60.003906 -89.390625 56.140625 -86.921875 C 52.273438 -84.453125 49.269531 -81 47.125 -76.5625 C 44.207031 -70.488281 42.75 -62.828125 42.75 -53.578125 Z M 42.375 -87.59375 L 43.125 -87.59375 C 46.414062 -92.40625 50.660156 -96.109375 55.859375 -98.703125 C 61.054688 -101.296875 66.945312 -102.59375 73.53125 -102.59375 C 80.238281 -102.59375 86.472656 -101.234375 92.234375 -98.515625 C 98.003906 -95.796875 103.007812 -92.09375 107.25 -87.40625 C 111.5 -82.71875 114.828125 -77.207031 117.234375 -70.875 C 119.640625 -64.539062 120.84375 -57.765625 120.84375 -50.546875 C 120.84375 -42.941406 119.539062 -35.941406 116.9375 -29.546875 C 114.34375 -23.148438 110.796875 -17.609375 106.296875 -12.921875 C 101.804688 -8.234375 96.550781 -4.554688 90.53125 -1.890625 C 84.519531 0.765625 78.15625 2.09375 71.4375 2.09375 C 64.46875 2.09375 57.910156 0.734375 51.765625 -1.984375 C 45.628906 -4.710938 40.722656 -8.296875 37.046875 -12.734375 L 22.609375 0 L 16.15625 0 L 16.15625 -113.046875 C 16.15625 -124.953125 15.332031 -133.125 13.6875 -137.5625 C 13.300781 -138.445312 12.851562 -139.207031 12.34375 -139.84375 C 11.84375 -140.476562 11.113281 -141.015625 10.15625 -141.453125 C 9.207031 -141.898438 7.910156 -142.28125 6.265625 -142.59375 C 4.617188 -142.90625 2.46875 -143.253906 -0.1875 -143.640625 L -0.1875 -150.09375 L 42.375 -157.703125 Z M 42.375 -87.59375 "/></g></g></g><g fill="#c5dbff" fill-opacity="1"><g transform="translate(194.242511, 253.499983)"><g><path d="M 98.796875 0 L 4.9375 0 L 4.9375 -4.375 L 64.40625 -90.625 L 46.9375 -90.625 C 41.488281 -90.625 37.050781 -90.398438 33.625 -89.953125 C 30.207031 -89.515625 27.453125 -88.566406 25.359375 -87.109375 C 23.273438 -85.660156 21.691406 -83.664062 20.609375 -81.125 C 19.535156 -78.59375 18.617188 -75.238281 17.859375 -71.0625 L 10.453125 -71.0625 L 12.734375 -100.703125 L 98.421875 -100.703125 L 98.421875 -96.328125 L 39.90625 -10.265625 L 56.625 -10.265625 C 63.207031 -10.265625 68.648438 -10.546875 72.953125 -11.109375 C 77.265625 -11.679688 80.75 -12.757812 83.40625 -14.34375 C 86.070312 -15.925781 88.160156 -18.140625 89.671875 -20.984375 C 91.191406 -23.835938 92.523438 -27.609375 93.671875 -32.296875 L 101.078125 -32.296875 Z M 98.796875 0 "/></g></g></g></svg>