<svg xmlns="http://www.w3.org/2000/svg" xmlns:xlink="http://www.w3.org/1999/xlink" width="1080" zoomAndPan="magnify" viewBox="0 0 810 809.999993" height="1080" preserveAspectRatio="xMidYMid meet" version="1.0"><defs><clipPath id="b44814351d"><path d="M 33.917969 2 L 774 2 L 774 808 L 33.917969 808 Z M 33.917969 2 " clip-rule="nonzero"/></clipPath></defs><g clip-path="url(#b44814351d)"><path fill="#bae1f7" d="M 426.71875 807.984375 C 210.042969 807.984375 33.917969 627.21875 33.917969 405 C 33.917969 182.78125 210.042969 2.015625 426.71875 2.015625 C 445.617188 2.015625 464.515625 3.460938 482.496094 6.214844 C 491.8125 7.65625 498.113281 16.183594 496.667969 25.367188 C 495.226562 34.550781 486.5625 40.847656 477.507812 39.402344 C 460.972656 36.910156 443.910156 35.597656 426.71875 35.597656 C 228.679688 35.597656 67.515625 201.277344 67.515625 405 C 67.515625 608.722656 228.679688 774.402344 426.71875 774.402344 C 557.828125 774.402344 678.433594 700.941406 741.429688 582.746094 C 745.890625 574.613281 755.867188 571.464844 764.132812 575.925781 C 772.273438 580.253906 775.421875 590.355469 771.089844 598.621094 C 702.191406 727.699219 570.292969 807.984375 426.71875 807.984375 " fill-opacity="1" fill-rule="nonzero"/></g><path fill="#bae1f7" d="M 590.109375 656.863281 C 409.65625 656.863281 262.800781 506.269531 262.800781 321.046875 C 262.800781 182.257812 347.582031 56.0625 473.964844 7.132812 C 482.625 3.855469 492.339844 8.050781 495.617188 16.839844 C 499.03125 25.367188 494.699219 35.074219 486.039062 38.484375 C 372.648438 82.429688 296.398438 196.03125 296.398438 321.046875 C 296.398438 487.644531 428.160156 623.28125 590.109375 623.28125 C 645.886719 623.28125 700.222656 607.148438 747.074219 576.582031 C 754.949219 571.597656 765.316406 573.828125 770.304688 581.566406 C 775.421875 589.308594 773.191406 599.671875 765.445312 604.785156 C 712.953125 638.894531 652.320312 656.863281 590.109375 656.863281 " fill-opacity="1" fill-rule="nonzero"/></svg>