<svg xmlns="http://www.w3.org/2000/svg" xmlns:xlink="http://www.w3.org/1999/xlink" width="1080" zoomAndPan="magnify" viewBox="0 0 810 809.999993" height="1080" preserveAspectRatio="xMidYMid meet" version="1.0"><path fill="#21272c" d="M 405 249.230469 C 319.082031 249.230469 249.230469 319.082031 249.230469 405 C 249.230469 490.917969 319.082031 560.769531 405 560.769531 C 490.917969 560.769531 560.769531 490.917969 560.769531 405 C 560.769531 319.082031 490.917969 249.230469 405 249.230469 Z M 405 591.921875 C 301.925781 591.921875 218.078125 508.074219 218.078125 405 C 218.078125 301.925781 301.925781 218.078125 405 218.078125 C 508.074219 218.078125 591.921875 301.925781 591.921875 405 C 591.921875 508.074219 508.074219 591.921875 405 591.921875 " fill-opacity="1" fill-rule="nonzero"/><path fill="#21272c" d="M 405 155.769531 C 396.359375 155.769531 389.421875 148.832031 389.421875 140.191406 L 389.421875 15.578125 C 389.421875 6.9375 396.359375 0 405 0 C 413.640625 0 420.578125 6.9375 420.578125 15.578125 L 420.578125 140.191406 C 420.578125 148.832031 413.640625 155.769531 405 155.769531 " fill-opacity="1" fill-rule="nonzero"/><path fill="#21272c" d="M 405 810 C 396.359375 810 389.421875 803.0625 389.421875 794.421875 L 389.421875 669.808594 C 389.421875 661.167969 396.359375 654.230469 405 654.230469 C 413.640625 654.230469 420.578125 661.167969 420.578125 669.808594 L 420.578125 794.421875 C 420.578125 803.0625 413.640625 810 405 810 " fill-opacity="1" fill-rule="nonzero"/><path fill="#21272c" d="M 217.710938 233.289062 C 213.816406 233.289062 209.800781 231.828125 206.757812 228.785156 L 118.652344 140.679688 C 112.566406 134.59375 112.566406 124.738281 118.652344 118.652344 C 124.738281 112.566406 134.59375 112.566406 140.679688 118.652344 L 228.785156 206.757812 C 234.871094 212.84375 234.871094 222.703125 228.785156 228.785156 C 225.742188 231.828125 221.726562 233.289062 217.710938 233.289062 " fill-opacity="1" fill-rule="nonzero"/><path fill="#21272c" d="M 680.394531 695.972656 C 676.378906 695.972656 672.363281 694.390625 669.320312 691.347656 L 581.214844 603.242188 C 575.128906 597.15625 575.128906 587.296875 581.214844 581.214844 C 587.296875 575.128906 597.15625 575.128906 603.242188 581.214844 L 691.347656 669.320312 C 697.433594 675.40625 697.433594 685.261719 691.347656 691.347656 C 688.304688 694.390625 684.289062 695.972656 680.394531 695.972656 " fill-opacity="1" fill-rule="nonzero"/><path fill="#21272c" d="M 140.191406 420.578125 L 15.578125 420.578125 C 6.9375 420.578125 0 413.640625 0 405 C 0 396.359375 6.9375 389.421875 15.578125 389.421875 L 140.191406 389.421875 C 148.710938 389.421875 155.769531 396.359375 155.769531 405 C 155.769531 413.640625 148.710938 420.578125 140.191406 420.578125 " fill-opacity="1" fill-rule="nonzero"/><path fill="#21272c" d="M 794.421875 420.578125 L 669.808594 420.578125 C 661.167969 420.578125 654.230469 413.640625 654.230469 405 C 654.230469 396.359375 661.167969 389.421875 669.808594 389.421875 L 794.421875 389.421875 C 803.0625 389.421875 810 396.359375 810 405 C 810 413.640625 803.0625 420.578125 794.421875 420.578125 " fill-opacity="1" fill-rule="nonzero"/><path fill="#21272c" d="M 129.605469 695.972656 C 125.589844 695.972656 121.695312 694.390625 118.53125 691.347656 C 112.566406 685.261719 112.566406 675.40625 118.53125 669.320312 L 206.757812 581.214844 C 212.84375 575.128906 222.578125 575.128906 228.785156 581.214844 C 234.871094 587.296875 234.871094 597.15625 228.785156 603.242188 L 140.558594 691.347656 C 137.636719 694.390625 133.621094 695.972656 129.605469 695.972656 " fill-opacity="1" fill-rule="nonzero"/><path fill="#21272c" d="M 592.289062 233.289062 C 588.273438 233.289062 584.257812 231.828125 581.214844 228.785156 C 575.128906 222.703125 575.128906 212.84375 581.214844 206.757812 L 669.320312 118.652344 C 675.40625 112.566406 685.261719 112.566406 691.347656 118.652344 C 697.433594 124.738281 697.433594 134.59375 691.347656 140.679688 L 603.242188 228.785156 C 600.199219 231.828125 596.183594 233.289062 592.289062 233.289062 " fill-opacity="1" fill-rule="nonzero"/></svg>